# Blender 4.3.0
# www.blender.org
mtllib Wall_2x4x1.mtl
o Cube
v 1.000000 0.000000 0.500000
v 1.000000 4.000000 0.500000
v -1.000000 -0.000000 0.500000
v -1.000000 4.000000 0.500000
v 1.000000 0.000000 -0.500000
v 1.000000 4.000000 -0.500000
v -1.000000 -0.000000 -0.500000
v -1.000000 4.000000 -0.500000
vn -0.0000 -0.0000 1.0000
vn -1.0000 -0.0000 -0.0000
vn -0.0000 -0.0000 -1.0000
vn 1.0000 -0.0000 -0.0000
vn -0.0000 -1.0000 -0.0000
vn -0.0000 1.0000 -0.0000
vt 2.000000 0.000000
vt 2.000000 4.000000
vt 0.000000 4.000000
vt 0.000000 0.000000
vt 1.000000 0.000000
vt 1.000000 4.000000
vt 1.000000 2.000000
vt 0.000000 2.000000
s 1
usemtl Material.005
f 1/1/1 2/2/1 4/3/1 3/4/1
f 3/5/2 4/6/2 8/3/2 7/4/2
f 7/1/3 8/2/3 6/3/3 5/4/3
f 5/5/4 6/6/4 2/3/4 1/4/4
f 3/7/5 7/8/5 5/4/5 1/5/5
f 8/7/6 4/8/6 2/4/6 6/5/6
