# Blender 4.3.2
# www.blender.org
mtllib Crate.mtl
o Cube
v 1.000000 0.000000 2.000000
v 1.000000 1.000000 2.000000
v -1.000000 -0.000000 2.000000
v -1.000000 1.000000 2.000000
v 1.000000 0.000000 -2.000000
v 1.000000 1.000000 -2.000000
v -1.000000 -0.000000 -2.000000
v -1.000000 1.000000 -2.000000
vn -0.0000 -0.0000 1.0000
vn -1.0000 -0.0000 -0.0000
vn -0.0000 -0.0000 -1.0000
vn 1.0000 -0.0000 -0.0000
vn -0.0000 -1.0000 -0.0000
vn -0.0000 1.0000 -0.0000
vt 0.000000 0.000000
vt 1.000000 0.000000
vt 1.000000 2.000000
vt 0.000000 2.000000
vt 3.800000 0.000000
vt 3.800000 1.000000
vt 0.000000 1.000000
vt 0.000000 0.000000
vt 1.000000 0.000000
vt 0.000000 2.000000
vt 4.000000 2.000000
vt 4.000000 0.000000
s 1
usemtl Material.004
f 1/1/1 2/2/1 4/3/1 3/4/1
f 3/5/2 4/6/2 8/7/2 7/8/2
f 7/8/3 8/9/3 6/3/3 5/10/3
f 5/5/4 6/6/4 2/7/4 1/8/4
f 3/11/5 7/10/5 5/8/5 1/12/5
f 8/11/6 4/10/6 2/8/6 6/12/6
