# Blender 4.3.0
# www.blender.org
mtllib Bullet.mtl
o Zylinder
v -0.092062 -0.000000 -0.050885
v 0.011140 0.000000 -0.054905
v -0.092062 -0.044067 -0.025442
v 0.011140 -0.047549 -0.027452
v -0.092062 -0.044067 0.025442
v 0.011140 -0.047549 0.027452
v -0.092062 0.000000 0.050885
v 0.011140 0.000000 0.054905
v -0.092062 0.044067 0.025442
v 0.011140 0.047549 0.027452
v -0.092062 0.044067 -0.025442
v 0.011140 0.047549 -0.027452
v 0.011140 -0.053865 -0.031099
v 0.011140 0.000000 -0.062198
v 0.011140 -0.053865 0.031099
v 0.011140 0.000000 0.062198
v 0.011140 0.053865 0.031099
v 0.011140 0.053865 -0.031099
v -0.092062 -0.000000 -0.062198
v -0.092062 -0.053865 -0.031099
v -0.092062 -0.053865 0.031099
v -0.092062 0.000000 0.062198
v -0.092062 0.053865 0.031099
v -0.092062 0.053865 -0.031099
v -0.098792 -0.000000 -0.050885
v -0.098792 -0.044067 -0.025442
v -0.098792 -0.044067 0.025442
v -0.098792 -0.000000 0.050885
v -0.098792 0.044067 0.025442
v -0.098792 0.044067 -0.025442
v -0.098792 -0.000000 -0.061517
v -0.098792 -0.053276 -0.030759
v -0.098792 -0.053276 0.030759
v -0.098792 -0.000000 0.061517
v -0.098792 0.053276 0.030759
v -0.098792 0.053276 -0.030759
v -0.108875 -0.000000 -0.061517
v -0.108875 -0.053276 -0.030759
v -0.108875 -0.053276 0.030759
v -0.108875 -0.000000 0.061517
v -0.108875 0.053276 0.030759
v -0.108875 0.053276 -0.030759
v 0.013304 -0.047549 -0.027452
v 0.013304 0.000000 -0.054905
v 0.013304 -0.047549 0.027452
v 0.013304 0.000000 0.054905
v 0.013304 0.047549 0.027452
v 0.013304 0.047549 -0.027452
v 0.015004 -0.052384 -0.030244
v 0.015004 0.000000 -0.060488
v 0.015004 -0.052384 0.030244
v 0.015004 0.000000 0.060488
v 0.015004 0.052384 0.030244
v 0.015004 0.052384 -0.030244
v 0.121061 0.000000 -0.031010
v 0.121061 -0.026855 -0.015505
v 0.091527 0.000000 -0.052589
v 0.051183 0.000000 -0.060488
v 0.051183 -0.052384 -0.030244
v 0.091527 -0.045544 -0.026295
v 0.045893 -0.052384 -0.030244
v 0.045893 0.000000 -0.060488
v 0.045893 -0.052384 0.030244
v 0.045893 0.000000 0.060488
v 0.045893 0.052384 0.030244
v 0.045893 0.052384 -0.030244
v 0.131871 -0.001327 -0.000766
v 0.131871 0.000000 -0.001532
v 0.091527 -0.045544 0.026295
v 0.051183 -0.052384 0.030244
v 0.121061 -0.026855 0.015505
v 0.131871 -0.001327 0.000766
v 0.091527 0.000000 0.052589
v 0.051183 0.000000 0.060488
v 0.121061 0.000000 0.031010
v 0.131871 0.000000 0.001532
v 0.091527 0.045544 0.026295
v 0.051183 0.052384 0.030244
v 0.121061 0.026855 0.015505
v 0.131871 0.001327 0.000766
v 0.091527 0.045544 -0.026295
v 0.051183 0.052384 -0.030244
v 0.121061 0.026855 -0.015505
v 0.131871 0.001327 -0.000766
vn -0.0000 -0.5000 -0.8660
vn -0.0000 -1.0000 -0.0000
vn -0.0000 -0.5000 0.8660
vn -0.0000 0.5000 0.8660
vn -0.0000 1.0000 -0.0000
vn -0.0000 0.5000 -0.8660
vn 1.0000 -0.0000 -0.0000
vn -1.0000 -0.0000 -0.0000
vn -0.9434 0.1659 0.2873
vn -0.9434 -0.3317 -0.0000
vn -0.9434 0.3317 -0.0000
vn -0.9434 -0.1659 0.2873
vn -0.9434 -0.1659 -0.2873
vn -0.9434 0.1659 -0.2873
vn 0.1672 -0.4930 -0.8538
vn 0.5347 -0.4225 -0.7318
vn 0.9208 -0.1950 -0.3377
vn 0.1672 -0.9859 -0.0000
vn 0.5347 -0.8450 -0.0000
vn 0.9208 -0.3899 -0.0000
vn 0.1672 -0.4930 0.8538
vn 0.5347 -0.4225 0.7318
vn 0.9208 -0.1950 0.3377
vn 0.1672 0.4930 0.8538
vn 0.5347 0.4225 0.7318
vn 0.9208 0.1950 0.3377
vn 0.1672 0.9859 -0.0000
vn 0.5347 0.8450 -0.0000
vn 0.9208 0.3899 -0.0000
vn 0.1672 0.4930 -0.8538
vn 0.5347 0.4225 -0.7318
vn 0.9208 0.1950 -0.3377
vt 1.000000 0.500000
vt 1.000000 1.000000
vt 0.833333 1.000000
vt 0.833333 0.500000
vt 0.666667 1.000000
vt 0.666667 0.500000
vt 0.500000 1.000000
vt 0.500000 0.500000
vt 1.000000 0.500000
vt 1.000000 1.000000
vt 0.833333 1.000000
vt 0.833333 0.500000
vt 0.066525 0.355929
vt 0.066525 0.144071
vt 0.666667 1.000000
vt 0.666667 0.500000
vt 0.500000 1.000000
vt 0.500000 0.500000
vt 0.579958 0.348173
vt 0.750000 0.446347
vt 0.250000 0.461859
vt 0.433475 0.355929
vt 0.457846 0.370000
vt 0.250000 0.490000
vt 0.433475 0.144071
vt 0.457846 0.130000
vt 0.250000 0.038141
vt 0.250000 0.010000
vt 0.042154 0.130000
vt 0.042154 0.370000
vt 0.920042 0.348174
vt 0.750000 0.490000
vt 0.957846 0.370000
vt 0.920042 0.151826
vt 0.957846 0.130000
vt 0.750000 0.053653
vt 0.750000 0.010000
vt 0.579958 0.151827
vt 0.542154 0.130000
vt 0.542154 0.370000
vt 0.254647 0.252683
vt 0.250000 0.255366
vt 0.245353 0.252683
vt 0.245353 0.247317
vt 0.250000 0.244634
vt 0.254647 0.247317
vt 0.433475 0.355929
vt 0.250000 0.454943
vt 0.427486 0.352471
vt 0.250000 0.358612
vt 0.344061 0.304306
vt 0.427486 0.147529
vt 0.344061 0.195694
vt 0.250000 0.045057
vt 0.250000 0.141388
vt 0.072514 0.147529
vt 0.155939 0.195694
vt 0.072514 0.352471
vt 0.155939 0.304306
s 0
usemtl Material.001
f 19/1/1 14/2/1 13/3/1 20/4/1
f 20/4/2 13/3/2 15/5/2 21/6/2
f 21/6/3 15/5/3 16/7/3 22/8/3
f 22/9/4 16/10/4 17/11/4 23/12/4
f 12/13/5 10/14/5 47/14/5 48/13/5
f 23/12/5 17/11/5 18/15/5 24/16/5
f 24/16/6 18/15/6 14/17/6 19/18/6
f 11/19/6 1/20/6 25/20/6 30/19/6
f 2/21/7 4/22/7 13/23/7 14/24/7
f 4/22/7 6/25/7 15/26/7 13/23/7
f 6/25/7 8/27/7 16/28/7 15/26/7
f 8/27/7 10/14/7 17/29/7 16/28/7
f 10/14/7 12/13/7 18/30/7 17/29/7
f 12/13/7 2/21/7 14/24/7 18/30/7
f 3/31/8 1/20/8 19/32/8 20/33/8
f 5/34/8 3/31/8 20/33/8 21/35/8
f 7/36/8 5/34/8 21/35/8 22/37/8
f 9/38/8 7/36/8 22/37/8 23/39/8
f 11/19/8 9/38/8 23/39/8 24/40/8
f 1/20/8 11/19/8 24/40/8 19/32/8
f 29/38/7 30/19/7 36/19/7 35/38/7
f 7/36/4 9/38/4 29/38/4 28/36/4
f 3/31/2 5/34/2 27/34/2 26/31/2
f 9/38/5 11/19/5 30/19/5 29/38/5
f 5/34/3 7/36/3 28/36/3 27/34/3
f 1/20/1 3/31/1 26/31/1 25/20/1
f 36/19/6 31/20/6 37/20/6 42/19/6
f 27/34/7 28/36/7 34/36/7 33/34/7
f 25/20/7 26/31/7 32/31/7 31/20/7
f 30/19/7 25/20/7 31/20/7 36/19/7
f 28/36/7 29/38/7 35/38/7 34/36/7
f 26/31/7 27/34/7 33/34/7 32/31/7
f 37/20/8 38/31/8 39/34/8 40/36/8 41/38/8 42/19/8
f 34/36/4 35/38/4 41/38/4 40/36/4
f 32/31/2 33/34/2 39/34/2 38/31/2
f 35/38/5 36/19/5 42/19/5 41/38/5
f 33/34/3 34/36/3 40/36/3 39/34/3
f 31/20/1 32/31/1 38/31/1 37/20/1
f 47/14/9 46/27/9 52/27/9 53/14/9
f 8/27/3 6/25/3 45/25/3 46/27/3
f 4/22/1 2/21/1 44/21/1 43/22/1
f 2/21/6 12/13/6 48/13/6 44/21/6
f 10/14/4 8/27/4 46/27/4 47/14/4
f 6/25/2 4/22/2 43/22/2 45/25/2
f 53/14/4 52/27/4 64/27/4 65/14/4
f 45/25/10 43/22/10 49/22/10 51/25/10
f 48/13/11 47/14/11 53/14/11 54/13/11
f 46/27/12 45/25/12 51/25/12 52/27/12
f 43/22/13 44/21/13 50/21/13 49/22/13
f 44/21/14 48/13/14 54/13/14 50/21/14
f 51/25/2 49/22/2 61/22/2 63/25/2
f 52/27/3 51/25/3 63/25/3 64/27/3
f 54/13/5 53/14/5 65/14/5 66/13/5
f 50/21/6 54/13/6 66/13/6 62/21/6
f 67/41/7 68/42/7 84/43/7 80/44/7 76/45/7 72/46/7
f 63/25/2 61/22/2 59/22/2 70/25/2
f 66/13/5 65/14/5 78/14/5 82/13/5
f 61/47/1 62/21/1 58/21/1 59/47/1
f 65/14/4 64/27/4 74/27/4 78/14/4
f 62/21/6 66/13/6 82/13/6 58/21/6
f 64/27/3 63/25/3 70/25/3 74/27/3
f 49/22/1 50/21/1 62/21/1 61/47/1
f 59/47/15 58/21/15 57/48/15 60/49/15
f 60/49/16 57/48/16 55/50/16 56/51/16
f 56/51/17 55/50/17 68/42/17 67/41/17
f 70/25/18 59/22/18 60/49/18 69/52/18
f 69/52/19 60/49/19 56/51/19 71/53/19
f 71/53/20 56/51/20 67/41/20 72/46/20
f 74/27/21 70/25/21 69/52/21 73/54/21
f 73/54/22 69/52/22 71/53/22 75/55/22
f 75/55/23 71/53/23 72/46/23 76/45/23
f 78/14/24 74/27/24 73/54/24 77/56/24
f 77/56/25 73/54/25 75/55/25 79/57/25
f 79/57/26 75/55/26 76/45/26 80/44/26
f 82/13/27 78/14/27 77/56/27 81/58/27
f 81/58/28 77/56/28 79/57/28 83/59/28
f 83/59/29 79/57/29 80/44/29 84/43/29
f 58/21/30 82/13/30 81/58/30 57/48/30
f 57/48/31 81/58/31 83/59/31 55/50/31
f 55/50/32 83/59/32 84/43/32 68/42/32
