# Blender 4.3.0
# www.blender.org
mtllib Crate.mtl
o Cube
v -2.000000 0.000000 2.000000
v -2.000000 1.500000 2.000000
v -2.000000 -0.000000 -2.000000
v -2.000000 1.500000 -2.000000
v 2.000000 0.000000 2.000000
v 2.000000 1.500000 2.000000
v 2.000000 -0.000000 -2.000000
v 2.000000 1.500000 -2.000000
vn -1.0000 -0.0000 -0.0000
vn -0.0000 -0.0000 -1.0000
vn 1.0000 -0.0000 -0.0000
vn -0.0000 -0.0000 1.0000
vn -0.0000 -1.0000 -0.0000
vn -0.0000 1.0000 -0.0000
vt 1.900000 0.000000
vt 1.900000 1.000000
vt 0.000000 1.000000
vt 0.000000 0.000000
vt 2.000000 2.000000
vt 0.000000 2.000000
vt 2.000000 0.000000
s 1
usemtl Material.004
f 1/1/1 2/2/1 4/3/1 3/4/1
f 3/1/2 4/2/2 8/3/2 7/4/2
f 7/1/3 8/2/3 6/3/3 5/4/3
f 5/1/4 6/2/4 2/3/4 1/4/4
f 3/5/5 7/6/5 5/4/5 1/7/5
f 8/5/6 4/6/6 2/4/6 6/7/6
