# Blender 4.3.0
# www.blender.org
mtllib Win.mtl
o Cube
v -2.000000 0.000000 2.000000
v -2.000000 4.000000 2.000000
v -2.000000 -0.000000 -2.000000
v -2.000000 4.000000 -2.000000
v 2.000000 0.000000 2.000000
v 2.000000 4.000000 2.000000
v 2.000000 -0.000000 -2.000000
v 2.000000 4.000000 -2.000000
vn -1.0000 -0.0000 -0.0000
vn -0.0000 -0.0000 -1.0000
vn 1.0000 -0.0000 -0.0000
vn -0.0000 -0.0000 1.0000
vn -0.0000 -1.0000 -0.0000
vn -0.0000 1.0000 -0.0000
vt 1.000000 -0.000000
vt 1.000000 1.000000
vt 0.000000 1.000000
vt -0.000000 0.000000
vt 0.000000 0.000000
vt 1.000000 0.000000
vt 0.414946 0.414946
vt 0.585054 0.414946
vt 0.585054 0.585054
vt 0.414946 0.585054
s 1
usemtl Material.004
f 1/1/1 2/2/1 4/3/1 3/4/1
f 3/1/2 4/2/2 8/3/2 7/4/2
f 7/1/3 8/2/3 6/3/3 5/4/3
f 5/1/4 6/2/4 2/3/4 1/4/4
f 3/5/5 7/6/5 5/2/5 1/3/5
f 8/7/6 4/8/6 2/9/6 6/10/6
